<svg width="41" height="40" viewBox="0 0 41 40" fill="none" xmlns="http://www.w3.org/2000/svg">
<g clip-path="url(#clip0_298_29252)">
<path fill-rule="evenodd" clip-rule="evenodd" d="M20.5593 41.561C32.3119 41.561 41.8393 32.0336 41.8393 20.281C41.8393 8.52836 32.3119 -0.999023 20.5593 -0.999023C8.80668 -0.999023 -0.720703 8.52836 -0.720703 20.281C-0.720703 32.0336 8.80668 41.561 20.5593 41.561ZM13.3103 17.0753C12.9679 17.0721 12.6379 17.2036 12.3915 17.4414L11.1257 18.7072C9.7699 20.0988 9.01681 21.9683 9.02945 23.911C9.0421 25.8538 9.81945 27.7133 11.1932 29.0871C12.567 30.4608 14.4265 31.2382 16.3693 31.2508C18.312 31.2635 20.1815 30.5104 21.573 29.1546L22.8372 27.8887C23.0678 27.6412 23.1934 27.3138 23.1875 26.9754C23.1815 26.6371 23.0444 26.3143 22.8052 26.075C22.5659 25.8358 22.2431 25.6987 21.9048 25.6927C21.5665 25.6868 21.239 25.8124 20.9915 26.043L19.7256 27.3089C18.8269 28.1901 17.6168 28.6809 16.3582 28.6747C15.0996 28.6685 13.8944 28.1658 13.0044 27.2758C12.1145 26.3859 11.6118 25.1806 11.6056 23.9221C11.5994 22.6635 12.0902 21.4534 12.9714 20.5547L14.2372 19.2888C14.4752 19.0426 14.607 18.7128 14.6042 18.3704C14.6014 18.028 14.4642 17.7004 14.2222 17.4581C13.9802 17.2159 13.6527 17.0784 13.3103 17.0753ZM25.9711 21.6265C25.9651 21.2881 26.0907 20.9607 26.3214 20.7131L27.5872 19.4473C28.4684 18.5486 28.9592 17.3385 28.953 16.0799C28.9468 14.8213 28.4441 13.6161 27.5542 12.7261C26.6642 11.8362 25.459 11.3334 24.2004 11.3273C22.9418 11.3211 21.7317 11.8119 20.833 12.693L19.5671 13.9589C19.3209 14.1969 18.9911 14.3287 18.6487 14.3259C18.3063 14.3231 17.9787 14.1859 17.7365 13.9439C17.4942 13.7019 17.3567 13.3744 17.3536 13.032C17.3504 12.6896 17.4819 12.3596 17.7197 12.1132L18.9856 10.8473C20.3771 9.49158 22.2466 8.73849 24.1893 8.75113C26.1321 8.76377 27.9916 9.54113 29.3654 10.9149C30.7391 12.2886 31.5165 14.1482 31.5291 16.0909C31.5418 18.0337 30.7887 19.9032 29.4329 21.2947L28.1671 22.5588C27.9195 22.7895 27.5921 22.9151 27.2538 22.9091C26.9154 22.9032 26.5926 22.7661 26.3534 22.5268C26.1141 22.2876 25.977 21.9648 25.9711 21.6265ZM24.9872 17.0174C24.9158 17.1776 24.8129 17.3218 24.6846 17.4414L17.7197 24.4063C17.6001 24.5346 17.456 24.6375 17.2958 24.7089C17.1356 24.7803 16.9627 24.8186 16.7873 24.8217C16.612 24.8248 16.4378 24.7926 16.2752 24.7269C16.1126 24.6612 15.9648 24.5634 15.8408 24.4394C15.7168 24.3154 15.6191 24.1677 15.5534 24.0051C15.4877 23.8425 15.4555 23.6683 15.4585 23.493C15.4616 23.3176 15.5 23.1447 15.5714 22.9845C15.6428 22.8243 15.7457 22.6801 15.874 22.5606L22.8389 15.5957C22.9585 15.4674 23.1026 15.3645 23.2628 15.2931C23.423 15.2217 23.5959 15.1833 23.7713 15.1802C23.9466 15.1771 24.1208 15.2094 24.2834 15.2751C24.446 15.3407 24.5938 15.4385 24.7178 15.5625C24.8418 15.6865 24.9395 15.8342 25.0052 15.9969C25.0709 16.1595 25.1031 16.3336 25.1001 16.509C25.097 16.6843 25.0586 16.8573 24.9872 17.0174Z" fill="#1E3362"/>
</g>
<defs>
<clipPath id="clip0_298_29252">
<rect x="0.277344" width="40" height="40" rx="20" fill="none"/>
</clipPath>
</defs>
</svg>
