<svg width="53" height="52" viewBox="0 0 53 52" fill="none" xmlns="http://www.w3.org/2000/svg">
<path d="M30.0456 36.6134C30.5295 36.6134 30.9936 36.4212 31.3358 36.079C31.678 35.7368 31.8703 35.2727 31.8703 34.7888C31.8703 34.3048 31.678 33.8407 31.3358 33.4985C30.9936 33.1563 30.5295 32.9641 30.0456 32.9641C29.5617 32.9641 29.0976 33.1563 28.7554 33.4985C28.4132 33.8407 28.221 34.3048 28.221 34.7888C28.221 35.2727 28.4132 35.7368 28.7554 36.079C29.0976 36.4212 29.5617 36.6134 30.0456 36.6134ZM24.4881 34.7888C24.4881 35.0284 24.4409 35.2656 24.3492 35.487C24.2575 35.7084 24.1231 35.9095 23.9537 36.079C23.7843 36.2484 23.5831 36.3828 23.3617 36.4745C23.1404 36.5662 22.9031 36.6134 22.6635 36.6134C22.4239 36.6134 22.1866 36.5662 21.9652 36.4745C21.7438 36.3828 21.5427 36.2484 21.3733 36.079C21.2038 35.9095 21.0694 35.7084 20.9777 35.487C20.886 35.2656 20.8388 35.0284 20.8388 34.7888C20.8388 34.3048 21.0311 33.8407 21.3733 33.4985C21.7154 33.1563 22.1795 32.9641 22.6635 32.9641C23.1474 32.9641 23.6115 33.1563 23.9537 33.4985C24.2959 33.8407 24.4881 34.3048 24.4881 34.7888ZM28.5413 39.3852C28.5413 39.8691 28.3491 40.3332 28.0069 40.6754C27.6647 41.0176 27.2006 41.2098 26.7167 41.2098C26.2328 41.2098 25.7687 41.0176 25.4265 40.6754C25.0843 40.3332 24.892 39.8691 24.892 39.3852C24.892 38.9013 25.0843 38.4372 25.4265 38.095C25.7687 37.7528 26.2328 37.5605 26.7167 37.5605C27.2006 37.5605 27.6647 37.7528 28.0069 38.095C28.3491 38.4372 28.5413 38.9013 28.5413 39.3852ZM21.2149 41.2098C21.6988 41.2098 22.1629 41.0176 22.5051 40.6754C22.8473 40.3332 23.0395 39.8691 23.0395 39.3852C23.0395 38.9013 22.8473 38.4372 22.5051 38.095C22.1629 37.7528 21.6988 37.5605 21.2149 37.5605C20.731 37.5605 20.2669 37.7528 19.9247 38.095C19.5825 38.4372 19.3903 38.9013 19.3903 39.3852C19.3903 39.8691 19.5825 40.3332 19.9247 40.6754C20.2669 41.0176 20.731 41.2098 21.2149 41.2098Z" fill="#60AEFF"/>
<path d="M27.7477 6.49988V13.4642H38.8905C39.2599 13.4642 39.6142 13.6109 39.8754 13.8721C40.1366 14.1333 40.2834 14.4876 40.2834 14.857C40.2834 15.2264 40.1366 15.5807 39.8754 15.8419C39.6142 16.1031 39.2599 16.2499 38.8905 16.2499L36.1048 44.107C35.9697 44.9497 35.4084 45.4999 34.712 45.4999H17.9977C17.3012 45.4999 16.7107 44.8912 16.6048 44.107L13.8191 16.2499C13.4497 16.2499 13.0954 16.1031 12.8342 15.8419C12.573 15.5807 12.4262 15.2264 12.4262 14.857C12.4262 14.4876 12.573 14.1333 12.8342 13.8721C13.0954 13.6109 13.4497 13.4642 13.8191 13.4642H24.962V6.49988H27.7477ZM16.9321 19.3838L19.2652 42.7142H33.4445L33.6673 40.4967C33.4258 40.8115 33.0883 41.039 32.7059 41.1447C32.3234 41.2504 31.917 41.2286 31.5481 41.0825C31.1792 40.9365 30.868 40.6742 30.6615 40.3354C30.4551 39.9966 30.3647 39.5997 30.4041 39.205C30.4434 38.8102 30.6104 38.439 30.8797 38.1476C31.149 37.8562 31.5059 37.6605 31.8963 37.5902C32.2868 37.5199 32.6895 37.5788 33.0435 37.7579C33.3975 37.9371 33.6835 38.2267 33.8581 38.583L35.7775 19.3838H16.9321Z" fill="#60AEFF"/>
</svg>
