<svg width="33" height="32" viewBox="0 0 33 32" fill="none" xmlns="http://www.w3.org/2000/svg">
<circle cx="16.6654" cy="15.9988" r="16" fill="white"/>
<path d="M25.7321 12.0927V19.6949C25.7321 20.4021 25.4511 21.0804 24.951 21.5805C24.4509 22.0806 23.7726 22.3615 23.0654 22.3615H11.3321C10.6248 22.3615 9.94655 22.0806 9.44645 21.5805C8.94636 21.0804 8.66541 20.4021 8.66541 19.6949V12.0927L16.9278 16.9546C17.0099 17.003 17.1034 17.0285 17.1987 17.0285C17.294 17.0285 17.3876 17.003 17.4697 16.9546L25.7321 12.0927ZM23.0654 8.49487C23.7216 8.49477 24.3547 8.73659 24.8438 9.17406C25.3328 9.61154 25.6434 10.214 25.7161 10.8661L17.1987 15.8762L8.68141 10.8661C8.75411 10.214 9.06468 9.61154 9.55372 9.17406C10.0428 8.73659 10.6759 8.49477 11.3321 8.49487H23.0654Z" fill="#372F60"/>
</svg>
