<svg width="24" height="25" viewBox="0 0 24 25" fill="none" xmlns="http://www.w3.org/2000/svg">
<g id="ep:place">
<path id="Vector" d="M12.5795 8.34517C13.1898 8.34517 13.7751 8.58761 14.2067 9.01916C14.6382 9.4507 14.8807 10.036 14.8807 10.6463C14.8807 10.9485 14.8212 11.2477 14.7055 11.5269C14.5899 11.8061 14.4204 12.0598 14.2067 12.2735C13.993 12.4871 13.7393 12.6566 13.4601 12.7723C13.181 12.8879 12.8817 12.9474 12.5795 12.9474C11.9692 12.9474 11.3839 12.705 10.9524 12.2735C10.5208 11.8419 10.2784 11.2566 10.2784 10.6463C10.2784 10.036 10.5208 9.4507 10.9524 9.01916C11.3839 8.58761 11.9692 8.34517 12.5795 8.34517ZM12.5795 4.20312C14.2884 4.20312 15.9272 4.88196 17.1356 6.09029C18.3439 7.29862 19.0227 8.93747 19.0227 10.6463C19.0227 15.4787 12.5795 22.6122 12.5795 22.6122C12.5795 22.6122 6.13635 15.4787 6.13635 10.6463C6.13635 8.93747 6.81519 7.29862 8.02352 6.09029C9.23185 4.88196 10.8707 4.20313 12.5795 4.20312ZM12.5795 6.04403C11.3589 6.04403 10.1883 6.52891 9.32524 7.39201C8.46214 8.2551 7.97726 9.42571 7.97726 10.6463C7.97726 11.5668 7.97726 13.4077 12.5795 19.5839C17.1818 13.4077 17.1818 11.5668 17.1818 10.6463C17.1818 9.42571 16.6969 8.2551 15.8338 7.39201C14.9707 6.52891 13.8001 6.04403 12.5795 6.04403Z" fill="#737373"/>
</g>
</svg>
