<svg width="45" height="45" viewBox="0 0 45 45" fill="none" xmlns="http://www.w3.org/2000/svg">
<path d="M25.8613 22.2987L20.9201 19.9931C20.4889 19.7929 20.1347 20.0173 20.1347 20.4947V24.8375C20.1347 25.3149 20.4889 25.5393 20.9201 25.3391L25.8591 23.0335C26.2925 22.8311 26.2925 22.5011 25.8613 22.2987ZM22.3347 1.54614C10.6703 1.54614 1.21472 11.0017 1.21472 22.6661C1.21472 34.3305 10.6703 43.7861 22.3347 43.7861C33.9991 43.7861 43.4547 34.3305 43.4547 22.6661C43.4547 11.0017 33.9991 1.54614 22.3347 1.54614ZM22.3347 31.2461C11.5239 31.2461 11.3347 30.2715 11.3347 22.6661C11.3347 15.0607 11.5239 14.0861 22.3347 14.0861C33.1455 14.0861 33.3347 15.0607 33.3347 22.6661C33.3347 30.2715 33.1455 31.2461 22.3347 31.2461Z" fill="white"/>
</svg>
