<svg width="41" height="40" viewBox="0 0 41 40" fill="none" xmlns="http://www.w3.org/2000/svg">
<g clip-path="url(#clip0_298_29258)">
<path fill-rule="evenodd" clip-rule="evenodd" d="M20.5613 41.561C32.3139 41.561 41.8413 32.0336 41.8413 20.281C41.8413 8.52836 32.3139 -0.999023 20.5613 -0.999023C8.80864 -0.999023 -0.718742 8.52836 -0.718742 20.281C-0.718742 32.0336 8.80864 41.561 20.5613 41.561ZM23.9003 8.77685C23.3457 8.7611 22.7033 8.75435 21.4378 8.75098L19.1249 8.7521C18.3044 8.74936 17.4838 8.75799 16.6635 8.77798L16.4453 8.78473C16.1933 8.79373 15.9436 8.80498 15.6443 8.81847C14.4463 8.87472 13.6307 9.06372 12.913 9.34159C12.1628 9.62394 11.4833 10.0666 10.9218 10.6387C10.3478 11.2001 9.90386 11.8805 9.62138 12.6321C9.34352 13.3499 9.15453 14.1655 9.09828 15.3636L9.09772 15.3758C9.08447 15.6696 9.07341 15.9149 9.06453 16.1646L9.05666 16.3828C9.03702 17.2031 9.02877 18.0237 9.03191 18.8442V21.1572C9.02992 21.9778 9.0393 22.7983 9.06003 23.6186L9.06565 23.8369C9.07562 24.1039 9.08687 24.3709 9.0994 24.6379C9.15565 25.836 9.34464 26.6527 9.6225 27.3693C9.90511 28.1203 10.3481 28.8006 10.9207 29.3627C11.4823 29.9352 12.1622 30.3779 12.913 30.6598C13.6307 30.9377 14.4474 31.1267 15.6443 31.183C15.9112 31.1961 16.1782 31.2077 16.4453 31.2178L16.6635 31.2246C17.4842 31.2447 18.3051 31.2533 19.126 31.2505H20.5986L21.4378 31.2493C22.7033 31.2471 23.3457 31.2392 23.9003 31.2235L24.1185 31.2167C24.3856 31.2068 24.6525 31.1955 24.9195 31.183C26.1164 31.1267 26.9331 30.9377 27.6497 30.6598C28.4004 30.3772 29.0806 29.9346 29.6431 29.3627C30.2158 28.801 30.6586 28.1205 30.9402 27.3693C31.2169 26.6516 31.4081 25.836 31.4644 24.6379L31.4649 24.6259C31.4782 24.332 31.4893 24.0866 31.4981 23.8369L31.5049 23.6186C31.5249 22.7983 31.5335 21.9777 31.5308 21.1572V19.6835L31.5296 18.8442C31.5274 17.5786 31.5206 16.9363 31.5038 16.3828L31.497 16.1646C31.4881 15.9151 31.4771 15.6701 31.4639 15.3767L31.4633 15.3636C31.407 14.1655 31.218 13.3487 30.9402 12.6321C30.6578 11.8813 30.2151 11.2011 29.6431 10.6387C29.0176 10.0143 28.3922 9.62733 27.6497 9.34159C26.9331 9.06372 26.1164 8.87472 24.9195 8.81847L24.8918 8.81723C24.6038 8.80428 24.3627 8.79345 24.1185 8.78473L23.9003 8.77685ZM16.3041 16.0233C17.3589 14.9685 18.7896 14.3758 20.2813 14.3758C21.7731 14.3758 23.2038 14.9685 24.2586 16.0233C25.3134 17.0782 25.906 18.5089 25.906 20.0007C25.906 21.4925 25.3134 22.9232 24.2586 23.9781C23.2038 25.033 21.7731 25.6256 20.2813 25.6256C18.7896 25.6256 17.3589 25.033 16.3041 23.9781C15.2492 22.9232 14.6566 21.4925 14.6566 20.0007C14.6566 18.5089 15.2492 17.0782 16.3041 16.0233ZM21.5729 16.8825C21.1637 16.7131 20.7253 16.6259 20.2825 16.6258C19.3874 16.6258 18.529 16.9814 17.8961 17.6143C17.2632 18.2472 16.9076 19.1056 16.9076 20.0007C16.9076 20.8958 17.2632 21.7542 17.8961 22.3871C18.529 23.0201 19.3874 23.3756 20.2825 23.3756C20.7256 23.3756 21.1645 23.2882 21.5739 23.1185C21.9833 22.9488 22.3553 22.7002 22.6687 22.3867C22.982 22.0733 23.2305 21.7012 23.4 21.2917C23.5696 20.8822 23.6568 20.4434 23.6567 20.0002C23.6566 19.557 23.5693 19.1181 23.3996 18.7087C23.2299 18.2992 22.9813 17.9272 22.6679 17.6139C22.3544 17.3005 21.9823 17.052 21.5729 16.8825ZM25.1941 13.1003C25.4578 12.8365 25.8155 12.6884 26.1884 12.6884C26.5613 12.6884 26.919 12.8365 27.1827 13.1003C27.4464 13.364 27.5946 13.7217 27.5946 14.0946C27.5946 14.4676 27.4464 14.8252 27.1827 15.0889C26.919 15.3527 26.5613 15.5008 26.1884 15.5008C25.8155 15.5008 25.4578 15.3527 25.1941 15.0889C24.9304 14.8252 24.7822 14.4676 24.7822 14.0946C24.7822 13.7217 24.9304 13.364 25.1941 13.1003Z" fill="#1E3362"/>
</g>
<defs>
<clipPath id="clip0_298_29258">
<rect width="40" height="40" fill="white" transform="translate(0.277351)"/>
</clipPath>
</defs>
</svg>
