<svg width="43" height="43" viewBox="0 0 43 43" fill="none" xmlns="http://www.w3.org/2000/svg">
<path fill-rule="evenodd" clip-rule="evenodd" d="M21.5613 42.562C33.3139 42.562 42.8413 33.0346 42.8413 21.282C42.8413 9.52933 33.3139 0.00195312 21.5613 0.00195312C9.80865 0.00195312 0.281265 9.52933 0.281265 21.282C0.281265 33.0346 9.80865 42.562 21.5613 42.562ZM22.161 18.4393V18.9879H22.1598C21.4746 18.4863 20.6474 18.2164 19.7983 18.2174C18.7368 18.2174 17.7188 18.6389 16.968 19.3892C16.2173 20.1395 15.7952 21.1572 15.7945 22.2187C15.7952 23.2801 16.2173 24.2979 16.968 25.0482C17.7188 25.7985 18.7368 26.22 19.7983 26.22C20.6478 26.2212 21.4755 25.9513 22.161 25.4495V25.4482C22.162 25.6341 22.2365 25.8119 22.3684 25.9429C22.5003 26.0738 22.6786 26.1472 22.8645 26.1468H23.8032V18.4393H22.161ZM15.369 16.2118V15.9619H7.16769V17.7175H12.8551L7.2384 24.6729C7.06772 24.924 6.93361 25.1654 6.93361 25.7055V26.1468H14.6656C14.7579 26.147 14.8493 26.1289 14.9347 26.0937C15.02 26.0585 15.0976 26.0068 15.1629 25.9416C15.2282 25.8764 15.2801 25.7989 15.3155 25.7136C15.3508 25.6283 15.369 25.5369 15.369 25.4446V24.5083H9.4012L14.6717 17.8931C14.7672 17.7749 14.8656 17.659 14.9667 17.5456L15.0033 17.5042C15.3068 17.0579 15.369 16.6776 15.369 16.2118ZM25.3803 25.9754C25.4901 26.0852 25.6389 26.1468 25.7941 26.1468H26.9657V15.9619H25.2089V25.5616C25.2089 25.7168 25.2706 25.8657 25.3803 25.9754ZM33.7043 18.4749C33.2153 18.2725 32.6911 18.1684 32.1618 18.1686C31.0929 18.1689 30.0678 18.5939 29.3121 19.35C28.5565 20.1061 28.1322 21.1314 28.1325 22.2004C28.1328 23.2694 28.5578 24.2944 29.3139 25.0501C30.07 25.8057 31.0953 26.2301 32.1643 26.2297C32.6936 26.2296 33.2177 26.1252 33.7066 25.9225C34.1956 25.7198 34.6398 25.4227 35.0139 25.0483C35.3881 24.674 35.6849 24.2295 35.8873 23.7405C36.0897 23.2514 36.1938 22.7273 36.1936 22.198C36.1935 21.6686 36.089 21.1446 35.8863 20.6556C35.6836 20.1667 35.3866 19.7224 35.0122 19.3483C34.6378 18.9741 34.1934 18.6774 33.7043 18.4749ZM20.7172 24.4093C20.4252 24.5244 20.1132 24.58 19.7995 24.5729C19.1842 24.5589 18.5989 24.3046 18.1687 23.8646C17.7385 23.4245 17.4976 22.8335 17.4976 22.2181C17.4976 21.6026 17.7385 21.0117 18.1687 20.5716C18.5989 20.1315 19.1842 19.8772 19.7995 19.8632C20.1132 19.8561 20.4252 19.9117 20.7172 20.0269C21.0091 20.142 21.2751 20.3143 21.4995 20.5337C21.724 20.7531 21.9023 21.0151 22.024 21.3043C22.1458 21.5936 22.2085 21.9042 22.2085 22.2181C22.2085 22.5319 22.1458 22.8426 22.024 23.1318C21.9023 23.4211 21.724 23.6831 21.4995 23.9024C21.2751 24.1218 21.0091 24.2941 20.7172 24.4093ZM33.8386 23.8747C33.3939 24.3194 32.7907 24.5692 32.1618 24.5692C31.5329 24.5692 30.9298 24.3194 30.4851 23.8747C30.0404 23.43 29.7905 22.8269 29.7905 22.198C29.7905 21.569 30.0404 20.9659 30.4851 20.5212C30.9298 20.0765 31.5329 19.8267 32.1618 19.8267C32.7907 19.8267 33.3939 20.0765 33.8386 20.5212C34.2833 20.9659 34.5331 21.569 34.5331 22.198C34.5331 22.8269 34.2833 23.43 33.8386 23.8747Z" fill="#1E3362"/>
</svg>
