<svg width="33" height="33" viewBox="0 0 33 33" fill="none" xmlns="http://www.w3.org/2000/svg">
<path d="M16.666 0.5C7.81322 0.5 0.666016 7.64721 0.666016 16.5C0.666016 25.3528 7.81322 32.5 16.666 32.5C25.5188 32.5 32.666 25.3528 32.666 16.5C32.666 7.64721 25.5188 0.5 16.666 0.5ZM24.9503 22.6726C24.9503 23.2411 24.7066 23.7284 24.3005 24.0533C23.8944 24.3782 23.3259 24.6218 22.8386 24.5406C20.9706 24.3782 19.1838 23.8909 17.5594 23.0787C15.9351 22.2665 14.4731 21.2919 13.1736 19.9924C11.8741 18.6929 10.8183 17.231 10.0873 15.6066C9.27515 13.901 8.78784 12.1142 8.62541 10.3274C8.62541 10.2462 8.62541 10.2462 8.62541 10.165C8.62541 9.67766 8.78784 9.19036 9.11272 8.86548C9.43759 8.45939 10.0061 8.21574 10.4934 8.21574H13.0924C14.067 8.21574 14.8792 8.9467 14.9604 9.92132C15.0416 10.4898 15.1229 11.0584 15.2853 11.6269C15.529 12.2766 15.2853 13.0076 14.798 13.5761L13.7422 14.632C14.798 16.6624 16.5036 18.2868 18.534 19.4239L19.5899 18.368C20.0772 17.8807 20.8081 17.7183 21.5391 17.8807C22.1076 18.0431 22.6762 18.1244 23.2447 18.2056C24.2193 18.2868 24.9503 19.099 24.9503 20.0736V22.6726Z" fill="white"/>
</svg>
