<svg width="45" height="45" viewBox="0 0 45 45" fill="none" xmlns="http://www.w3.org/2000/svg">
<g clip-path="url(#clip0_94_895)">
<path fill-rule="evenodd" clip-rule="evenodd" d="M22.6685 44.3322C34.4506 44.3322 44.0018 34.7809 44.0018 22.9989C44.0018 11.2168 34.4506 1.66553 22.6685 1.66553C10.8864 1.66553 1.33517 11.2168 1.33517 22.9989C1.33517 34.7809 10.8864 44.3322 22.6685 44.3322ZM31.0665 14.4817C31.2483 14.5957 31.436 14.7008 31.6287 14.7968C32.8827 15.3989 34.1076 15.5822 34.7108 15.5192V20.2077C34.7108 20.2077 32.9892 20.139 31.7114 19.8124C29.9303 19.3535 28.7887 18.6489 28.7887 18.6489C28.7887 18.6489 27.9963 18.1442 27.9368 18.1098V27.7985C27.9368 28.337 27.7887 29.6844 27.3449 30.8078C26.9559 31.7685 26.3999 32.6583 25.7006 33.4391C25.7006 33.4391 24.606 34.7459 22.6833 35.623C21.0807 36.3544 19.655 36.3944 19.0888 36.4104C19.0425 36.4117 19.002 36.4128 18.9676 36.4141C18.9676 36.4141 16.3352 36.5161 13.961 34.9624L13.9491 34.951V34.9624C13.1464 34.423 12.4306 33.7727 11.8247 33.0324C11.0734 32.1095 10.6123 31.0147 10.4933 30.6938V30.6824C10.3042 30.1376 9.90737 28.8194 9.96686 27.547C10.0614 25.3053 10.8425 23.924 11.0496 23.5803C11.5936 22.6377 12.3042 21.7938 13.1495 21.0865C14.1142 20.3077 15.2361 19.7299 16.4443 19.3895C17.6525 19.0492 18.9208 18.9536 20.1693 19.1089L20.1633 23.9177C19.7521 23.7887 19.3222 23.7231 18.8897 23.7235C16.6047 23.7235 14.7528 25.5178 14.7528 27.7337C14.7528 29.9497 16.6047 31.7439 18.8897 31.7439C19.6011 31.7448 20.3005 31.5671 20.9188 31.2283C21.5122 30.9037 22.0135 30.4437 22.3789 29.8886C22.7442 29.3336 22.9624 28.7006 23.0141 28.0454V28.0351C23.017 28.0213 23.017 28.0076 23.017 27.9944C23.0176 27.9839 23.0183 27.974 23.019 27.9642C23.0204 27.9441 23.0218 27.9251 23.0218 27.905C23.0325 27.6656 23.0325 27.4232 23.0325 27.178V8.91551H27.9368C27.9291 8.91551 27.8779 9.36809 28.0016 10.0676H27.9957C28.1438 10.9103 28.546 12.1139 29.6227 13.3004C30.0531 13.7485 30.5378 14.1451 31.0665 14.4817Z" fill="white"/>
</g>
<defs>
<clipPath id="clip0_94_895">
<rect x="0.333862" y="0.66626" width="44" height="44" rx="22" fill="white"/>
</clipPath>
</defs>
</svg>
