<svg width="41" height="40" viewBox="0 0 41 40" fill="none" xmlns="http://www.w3.org/2000/svg">
<g clip-path="url(#clip0_298_29256)">
<path fill-rule="evenodd" clip-rule="evenodd" d="M0.277348 20.1117C0.277348 30.055 7.49902 38.3233 16.944 40V25.555H11.944V20H16.944V15.555C16.944 10.555 20.1657 7.77833 24.7224 7.77833C26.1657 7.77833 27.7224 8 29.1657 8.22167V13.3333H26.6107C24.1657 13.3333 23.6107 14.555 23.6107 16.1117V20H28.944L28.0557 25.555H23.6107V40C33.0557 38.3233 40.2774 30.0567 40.2774 20.1117C40.2774 9.05 31.2774 0 20.2773 0C9.27735 0 0.277348 9.05 0.277348 20.1117Z" fill="#1E3362"/>
</g>
<defs>
<clipPath id="clip0_298_29256">
<rect width="40" height="40" fill="white" transform="translate(0.277348)"/>
</clipPath>
</defs>
</svg>
