<svg width="45" height="45" viewBox="0 0 45 45" fill="none" xmlns="http://www.w3.org/2000/svg">
<g clip-path="url(#clip0_94_884)">
<path fill-rule="evenodd" clip-rule="evenodd" d="M0.334351 22.7889C0.334351 33.7265 8.27818 42.8217 18.6677 44.666V28.7765H13.1677V22.666H18.6677V17.7765C18.6677 12.2765 22.2115 9.22218 27.2239 9.22218C28.8115 9.22218 30.5239 9.46602 32.1115 9.70985V15.3327H29.301C26.6115 15.3327 26.001 16.6765 26.001 18.3888V22.666H31.8677L30.8905 28.7765H26.001V44.666C36.3905 42.8217 44.3344 33.7284 44.3344 22.7889C44.3344 10.621 34.4344 0.666016 22.3344 0.666016C10.2344 0.666016 0.334351 10.621 0.334351 22.7889Z" fill="#2E62C3"/>
</g>
<defs>
<clipPath id="clip0_94_884">
<rect width="44" height="44" fill="white" transform="translate(0.333862 0.66626)"/>
</clipPath>
</defs>
</svg>
