<svg width="43" height="45" viewBox="0 0 43 45" fill="none" xmlns="http://www.w3.org/2000/svg">
<path fill-rule="evenodd" clip-rule="evenodd" d="M21.6698 43.332C33.4519 43.332 43.0031 33.7807 43.0031 21.9986C43.0031 10.2165 33.4519 0.665283 21.6698 0.665283C9.88772 0.665283 0.336456 10.2165 0.336456 21.9986C0.336456 33.7807 9.88772 43.332 21.6698 43.332ZM22.27 19.1491V19.6991H22.2688C21.5819 19.1963 20.7526 18.9257 19.9014 18.9266C18.8373 18.9266 17.8167 19.3492 17.064 20.1014C16.3114 20.8536 15.8882 21.8739 15.8876 22.938C15.8882 24.0021 16.3114 25.0224 17.064 25.7746C17.8167 26.5268 18.8373 26.9493 19.9014 26.9493C20.753 26.9505 21.5828 26.6799 22.27 26.1769V26.1756C22.271 26.3619 22.3458 26.5402 22.4779 26.6715C22.6101 26.8028 22.789 26.8763 22.9752 26.876H23.9164V19.1491H22.27ZM15.461 16.9161V16.6655H7.23913V18.4255H12.9408L7.31002 25.3983C7.13891 25.6501 7.00447 25.8921 7.00447 26.4335V26.876H14.7558C14.8484 26.8761 14.94 26.858 15.0256 26.8227C15.1111 26.7874 15.1889 26.7356 15.2544 26.6702C15.3199 26.6048 15.3719 26.5272 15.4073 26.4417C15.4428 26.3562 15.461 26.2645 15.461 26.172V25.2333H9.47824L14.7619 18.6015C14.8577 18.483 14.9563 18.3669 15.0577 18.2532L15.0944 18.2116C15.3987 17.7643 15.461 17.383 15.461 16.9161ZM25.4974 26.7041C25.6074 26.8142 25.7566 26.876 25.9122 26.876H27.0868V16.6655H25.3256V26.2893C25.3256 26.4449 25.3874 26.5941 25.4974 26.7041ZM33.8423 19.1849C33.352 18.9819 32.8265 18.8776 32.2959 18.8777C31.2243 18.8781 30.1966 19.3041 29.4391 20.0621C28.6815 20.8201 28.2561 21.848 28.2565 22.9196C28.2568 23.9913 28.6828 25.0189 29.4408 25.7765C30.1988 26.534 31.2267 26.9594 32.2984 26.9591C32.829 26.9589 33.3544 26.8542 33.8446 26.651C34.3347 26.4478 34.7801 26.1501 35.1552 25.7747C35.5303 25.3994 35.8278 24.9539 36.0307 24.4636C36.2336 23.9733 36.338 23.4478 36.3378 22.9172C36.3376 22.3866 36.233 21.8612 36.0298 21.371C35.8265 20.8808 35.5288 20.4355 35.1535 20.0604C34.7781 19.6853 34.3326 19.3878 33.8423 19.1849ZM20.8226 25.134C20.5299 25.2495 20.2171 25.3052 19.9026 25.2981C19.2858 25.284 18.699 25.0292 18.2677 24.588C17.8364 24.1468 17.595 23.5543 17.595 22.9374C17.595 22.3204 17.8364 21.7279 18.2677 21.2867C18.699 20.8456 19.2858 20.5907 19.9026 20.5766C20.2171 20.5695 20.5299 20.6252 20.8226 20.7407C21.1153 20.8561 21.3819 21.0288 21.6069 21.2488C21.8319 21.4687 22.0107 21.7313 22.1327 22.0213C22.2548 22.3113 22.3176 22.6227 22.3176 22.9374C22.3176 23.252 22.2548 23.5634 22.1327 23.8534C22.0107 24.1434 21.8319 24.406 21.6069 24.626C21.3819 24.8459 21.1153 25.0186 20.8226 25.134ZM33.9769 24.5981C33.531 25.044 32.9264 25.2944 32.2959 25.2944C31.6654 25.2944 31.0608 25.044 30.615 24.5981C30.1691 24.1523 29.9187 23.5477 29.9187 22.9172C29.9187 22.2867 30.1691 21.6821 30.615 21.2362C31.0608 20.7904 31.6654 20.54 32.2959 20.54C32.9264 20.54 33.531 20.7904 33.9769 21.2362C34.4227 21.6821 34.6731 22.2867 34.6731 22.9172C34.6731 23.5477 34.4227 24.1523 33.9769 24.5981Z" fill="#2E62C3"/>
</svg>
