<svg width="45" height="45" viewBox="0 0 45 45" fill="none" xmlns="http://www.w3.org/2000/svg">
<g clip-path="url(#clip0_94_900)">
<path fill-rule="evenodd" clip-rule="evenodd" d="M22.6685 44.3322C34.4506 44.3322 44.0018 34.7809 44.0018 22.9989C44.0018 11.2168 34.4506 1.66553 22.6685 1.66553C10.8864 1.66553 1.33517 11.2168 1.33517 22.9989C1.33517 34.7809 10.8864 44.3322 22.6685 44.3322ZM26.3168 10.3186C25.7067 10.3013 25.0001 10.2939 23.608 10.2902L21.0638 10.2914C20.1612 10.2884 19.2587 10.2979 18.3563 10.3199L18.1163 10.3273C17.8391 10.3372 17.5644 10.3496 17.2352 10.3644C15.9173 10.4263 15.0202 10.6342 14.2307 10.9398C13.4055 11.2504 12.658 11.7374 12.0405 12.3666C11.409 12.9842 10.9207 13.7327 10.61 14.5594C10.3043 15.349 10.0964 16.2461 10.0346 17.564L10.034 17.5772C10.0194 17.9005 10.0072 18.1704 9.99744 18.4451L9.98878 18.6852C9.96718 19.5875 9.9581 20.4902 9.96156 21.3928V23.937C9.95938 24.8396 9.96969 25.7422 9.99249 26.6446L9.99868 26.8847C10.0096 27.1784 10.022 27.4721 10.0358 27.7657C10.0977 29.0836 10.3056 29.982 10.6112 30.7703C10.9221 31.5964 11.4094 32.3447 12.0392 32.9631C12.657 33.5928 13.4049 34.0798 14.2307 34.3899C15.0202 34.6956 15.9186 34.9035 17.2352 34.9653C17.5288 34.9798 17.8225 34.9926 18.1163 35.0037L18.3563 35.0111C19.2591 35.0332 20.1621 35.0427 21.0651 35.0396H22.6849L23.608 35.0384C25.0001 35.0359 25.7067 35.0272 26.3168 35.0099L26.5568 35.0025C26.8506 34.9915 27.1443 34.9792 27.4379 34.9653C28.7545 34.9035 29.6529 34.6956 30.4411 34.3899C31.2669 34.079 32.0151 33.5921 32.6339 32.9631C33.2639 32.3451 33.7509 31.5967 34.0606 30.7703C34.365 29.9808 34.5754 29.0836 34.6373 27.7657L34.6379 27.7525C34.6525 27.4292 34.6646 27.1593 34.6744 26.8847L34.6818 26.6446C34.7038 25.7422 34.7133 24.8396 34.7103 23.937V22.3159L34.7091 21.3928C34.7066 20.0006 34.6992 19.294 34.6806 18.6852L34.6732 18.4451C34.6634 18.1707 34.6513 17.9011 34.6367 17.5783L34.636 17.564C34.5742 16.2461 34.3663 15.3477 34.0606 14.5594C33.75 13.7335 33.2631 12.9853 32.6339 12.3666C31.9459 11.6799 31.2578 11.2542 30.4411 10.9398C29.6529 10.6342 28.7545 10.4263 27.4379 10.3644L27.4074 10.3631C27.0906 10.3488 26.8255 10.3369 26.5568 10.3273L26.3168 10.3186ZM17.9609 18.2898C19.1212 17.1294 20.695 16.4775 22.3359 16.4775C23.9769 16.4775 25.5506 17.1294 26.7109 18.2898C27.8712 19.4501 28.5231 21.0239 28.5231 22.6649C28.5231 24.3059 27.8712 25.8796 26.7109 27.04C25.5506 28.2004 23.9769 28.8522 22.3359 28.8522C20.695 28.8522 19.1212 28.2004 17.9609 27.04C16.8006 25.8796 16.1487 24.3059 16.1487 22.6649C16.1487 21.0239 16.8006 19.4501 17.9609 18.2898ZM23.7566 19.2348C23.3066 19.0485 22.8242 18.9525 22.3372 18.9525C21.3526 18.9525 20.4084 19.3436 19.7122 20.0398C19.016 20.736 18.6249 21.6803 18.6249 22.6649C18.6249 23.6495 19.016 24.5937 19.7122 25.29C20.4084 25.9862 21.3526 26.3773 22.3372 26.3773C22.8247 26.3772 23.3074 26.2811 23.7578 26.0945C24.2081 25.9078 24.6173 25.6343 24.962 25.2895C25.3066 24.9447 25.58 24.5354 25.7665 24.085C25.953 23.6345 26.0489 23.1518 26.0489 22.6643C26.0488 22.1767 25.9527 21.694 25.766 21.2436C25.5794 20.7933 25.3059 20.384 24.9611 20.0394C24.6163 19.6947 24.207 19.4213 23.7566 19.2348ZM27.74 15.0744C28.03 14.7843 28.4235 14.6213 28.8337 14.6213C29.2439 14.6213 29.6374 14.7843 29.9275 15.0744C30.2175 15.3645 30.3805 15.7579 30.3805 16.1682C30.3805 16.5784 30.2175 16.9718 29.9275 17.2619C29.6374 17.552 29.2439 17.715 28.8337 17.715C28.4235 17.715 28.03 17.552 27.74 17.2619C27.4499 16.9718 27.2869 16.5784 27.2869 16.1682C27.2869 15.7579 27.4499 15.3645 27.74 15.0744Z" fill="white"/>
</g>
<defs>
<clipPath id="clip0_94_900">
<rect width="44" height="44" fill="white" transform="translate(0.333862 0.66626)"/>
</clipPath>
</defs>
</svg>
